<svg xmlns="http://www.w3.org/2000/svg" viewBox="0 0 196.04 229.44"><defs><style>.cls-1{fill:#1d1e17;}.cls-2{fill:#e9c7ac;}.cls-3{fill:#f1d6bb;}.cls-4{fill:#e9bfa6;}.cls-5{fill:#71b5e6;}.cls-6{fill:#5eabdc;}.cls-7{fill:#fff;}.cls-8{fill:#8ac43f;}.cls-9{fill:#f0f0f0;}.cls-10{fill:#faec21;}.cls-11{fill:#f9ae3b;}</style></defs><title>focus</title><g id="Layer_2" data-name="Layer 2"><g id="Layer_1-2" data-name="Layer 1"><path class="cls-1" d="M113.76,117.76c0,27.31-22.36,13.14-49.94,13.14h0c-27.58,0-49.94,14.17-49.94-13.14V73.05c0-27.31,22.36-49.45,49.94-49.45h0c27.58,0,49.94,22.14,49.94,49.45Z"/><ellipse class="cls-1" cx="64.03" cy="73.47" rx="50.94" ry="50.44"/><polygon class="cls-2" points="81.08 181.5 63.81 229.44 46.99 181.5 46.99 144.49 81.08 144.49 81.08 181.5"/><path class="cls-3" d="M64,41.91c-16.55,0-42.72,9.32-42.72,53,0,25.21,9.92,37.09,13.54,41.66,3.33,4.2,20.41,17.79,29.18,17.79Z"/><path class="cls-3" d="M13.07,105.29c-.73-7,2.63-13.17,7.5-13.83S30,95.92,30.71,102.9s-2.63,13.16-7.5,13.82S13.8,112.27,13.07,105.29Z"/><path class="cls-4" d="M63.9,41.91c16.55,0,42.72,9.32,42.72,53,0,25.21-9.92,37.09-13.54,41.66-3.33,4.2-20.41,17.79-29.19,17.79Z"/><path class="cls-4" d="M115,105.29c.73-7-2.63-13.17-7.5-13.83s-9.41,4.46-10.14,11.43,2.63,13.16,7.5,13.82S114.26,112.27,115,105.29Z"/><path class="cls-2" d="M63.81,229.44v-46.1S51.1,180.21,48.29,170A35.67,35.67,0,0,1,47,161.18s-27.81,9.3-34,18.9c-5.17,15.23-6.58,49.35-6.58,49.35Z"/><path class="cls-2" d="M63.81,229.44v-46.1S76.53,180.21,79.33,170a35.76,35.76,0,0,0,1.31-8.84s27.8,9.3,34,18.9c5.17,15.23,6.58,49.35,6.58,49.35Z"/><path class="cls-1" d="M61.62,29.35c-30.24,0-39.44,26.23-39.44,38.32-11,15.09,1,28.6,9.45,33.34V93.58c0-9.76,9.37-18.8,23.45-17.3,12.62,1.35,20.56-5.71,27.28-17.72C90.65,42.49,80.31,29.35,61.62,29.35Z"/><path class="cls-1" d="M81.08,53.64S88.14,82,107.49,91.47c3.44-25.54,5.48-20.16,0-33.6S81.08,34.43,81.08,34.43Z"/><path class="cls-5" d="M63.81,229.44V190.66L47,161.18s-27.81,9.3-34,18.9C7.81,195.31,0,229.44,0,229.44Z"/><path class="cls-6" d="M63.81,229.44V190.66l16.83-29.48s27.8,9.3,34,18.9c5.17,15.23,14.84,49.35,14.84,49.35Z"/><polygon class="cls-7" points="63.81 190.66 46.99 161.18 31.53 166.07 44.69 195.31 63.81 190.66"/><polygon class="cls-7" points="63.81 190.66 80.64 161.18 96.1 166.07 82.94 195.31 63.81 190.66"/><path class="cls-8" d="M158.26,66.22A28.44,28.44,0,1,1,186.7,37.78,28.47,28.47,0,0,1,158.26,66.22Z"/><path class="cls-9" d="M158.26,64.84a27.06,27.06,0,1,1,27.06-27.06A27.09,27.09,0,0,1,158.26,64.84Z"/><path class="cls-8" d="M158.26,57.94a20.17,20.17,0,1,1,20.17-20.16A20.19,20.19,0,0,1,158.26,57.94Z"/><path class="cls-9" d="M158.26,51a13.27,13.27,0,1,1,13.27-13.27A13.28,13.28,0,0,1,158.26,51Z"/><circle class="cls-8" cx="158.26" cy="37.78" r="6.37"/><path class="cls-10" d="M158.26,39.16a1.38,1.38,0,0,1-1-2.35l21.05-21.05a1.38,1.38,0,0,1,2,1.95L159.23,38.75A1.38,1.38,0,0,1,158.26,39.16Z"/><polygon class="cls-11" points="177.6 17.57 180.07 7.58 187.65 0 187.65 8.39 196.04 8.39 188.46 15.97 178.47 18.44 177.6 17.57"/></g></g></svg>