<svg xmlns="http://www.w3.org/2000/svg" viewBox="0 0 314.38 286.48"><defs><style>.cls-1{isolation:isolate;}.cls-2{fill:#fff;}.cls-3{fill:#b1b1b1;}.cls-4{fill:#cbcbcb;}.cls-5{fill:#cacaca;}.cls-6{fill:#faec21;}.cls-7{fill:#8ac43f;}.cls-8{fill:#77a736;}.cls-9{fill:#88cee7;}.cls-10{fill:#ffe1ab;}.cls-11{opacity:0.3;mix-blend-mode:multiply;}.cls-12{fill:#979797;}.cls-13{fill:#666;}.cls-14{fill:#4d4d4d;}</style></defs><title>satutory_1</title><g class="cls-1"><g id="Layer_2" data-name="Layer 2"><g id="Layer_1-2" data-name="Layer 1"><polygon class="cls-2" points="187.35 285.65 0 285.65 0 45.42 32.98 0 187.35 0 187.35 285.65"/><rect class="cls-3" x="18.88" y="56.24" width="77.72" height="2.41"/><rect class="cls-3" x="18.88" y="65.88" width="77.72" height="2.4"/><rect class="cls-3" x="18.88" y="75.52" width="149.59" height="2.41"/><rect class="cls-3" x="18.88" y="85.16" width="149.59" height="2.4"/><rect class="cls-3" x="18.88" y="94.8" width="149.59" height="2.4"/><rect class="cls-3" x="18.88" y="104.43" width="149.59" height="2.4"/><rect class="cls-3" x="18.88" y="114.08" width="149.59" height="2.4"/><rect class="cls-3" x="18.88" y="123.72" width="149.59" height="2.4"/><rect class="cls-3" x="18.88" y="133.35" width="149.59" height="2.4"/><rect class="cls-3" x="18.88" y="142.99" width="149.59" height="2.4"/><rect class="cls-3" x="18.88" y="152.63" width="149.59" height="2.4"/><rect class="cls-3" x="18.88" y="162.27" width="149.59" height="2.4"/><rect class="cls-3" x="18.88" y="171.91" width="149.59" height="2.41"/><rect class="cls-3" x="18.88" y="181.55" width="149.59" height="2.4"/><rect class="cls-3" x="18.88" y="191.19" width="149.59" height="2.4"/><rect class="cls-3" x="18.88" y="200.83" width="149.59" height="2.4"/><rect class="cls-3" x="18.88" y="210.47" width="149.59" height="2.4"/><rect class="cls-3" x="18.88" y="220.11" width="149.59" height="2.4"/><rect class="cls-3" x="101.84" y="229.75" width="66.63" height="2.4"/><polygon class="cls-4" points="32.98 45.42 0 45.42 32.98 0 32.98 45.42"/><path class="cls-5" d="M105.16,255.61a9.07,9.07,0,0,1,0,10.86L90.9,284.23a5.34,5.34,0,0,1-8.71,0h0a9.06,9.06,0,0,1,0-10.86l14.26-17.76a5.35,5.35,0,0,1,8.72,0Z"/><polygon class="cls-6" points="94.03 281.55 83.25 268.11 99.26 237.91 118.44 261.49 94.03 281.55"/><polygon class="cls-7" points="118.18 263.5 97.73 238.02 188.58 119.65 213.21 150.32 118.18 263.5"/><path class="cls-6" d="M162.15,133.52a2.11,2.11,0,0,1-1.55-.72,3.47,3.47,0,0,1-.23-4.16c1.71-2.45,42.07-60.17,55.41-68.84,14.55-9.46,22.71,1.47,23.05,1.94a3.48,3.48,0,0,1-.17,4.17,2.06,2.06,0,0,1-3.33-.2c-.28-.37-6.2-7.93-17.36-.67-12.55,8.16-53.61,66.89-54,67.48A2.19,2.19,0,0,1,162.15,133.52Z"/><path class="cls-8" d="M210.55,158.73,263,93.45c7.93-9.88,7.93-25.89,0-35.77s-20.79-9.88-28.72,0L181.84,123Z"/><path class="cls-6" d="M210.89,167.42a5,5,0,0,1-8.21,0l-27.81-34.65a8.53,8.53,0,0,1,0-10.23h0a5,5,0,0,1,8.21,0l27.81,34.64a8.56,8.56,0,0,1,0,10.24Z"/><path class="cls-9" d="M314.38,270.61c0,2.11-1.37,3.82-3.06,3.82H124.91c-1.69,0-3.06-1.71-3.06-3.82V122.78c0-2.1,1.37-3.81,3.06-3.81H311.32c1.69,0,3.06,1.71,3.06,3.81Z"/><path class="cls-7" d="M208.77,229.78c-1.13-1.61-9.3-5.27-13.18-7v-.75l-7.53-5.54v0a1.58,1.58,0,0,0-1.53-1.33V202.66H160.78v12.57a1.58,1.58,0,0,0-1.53,1.33v0l-7.53,5.54v.75c-3.88,1.68-12,5.35-13.18,7-1.49,2.11-3.49,25.6-3.49,25.6h77.22S210.26,231.89,208.77,229.78Z"/><path class="cls-10" d="M195.95,178.18c-.94-1-2.22.27-2.22.27v0a143,143,0,0,0-.61-19.47c-1.21-9.53-12.52-14.29-19.47-14.29s-18.25,4.77-19.47,14.29a143.5,143.5,0,0,0-.6,19.49v0s-1.27-1.26-2.21-.27-.14,8.34,1.11,11,.85,4,2.07,4.05c.7,0,.86,0,.89-.11,2.25,6,9.23,24.32,18.23,24.32s16-18.35,18.22-24.33c0,.07.18.15.89.12,1.23,0,.83-1.35,2.08-4.05S196.89,179.18,195.95,178.18Z"/><g class="cls-11"><path class="cls-8" d="M208.77,229.78c-1.13-1.61-9.3-5.27-13.18-7v-.75l-7.53-5.54v0a1.58,1.58,0,0,0-1.53-1.33v-9.87c-3.29,6.16-7.7,12-12.77,12.11v37.9h38.51S210.26,231.89,208.77,229.78Z"/><path class="cls-10" d="M186.52,205.37a103.07,103.07,0,0,0,5.35-12.21c0,.07.18.15.89.12,1.23,0,.83-1.35,2.08-4.05s2-10,1.11-11-2.22.27-2.22.27v0a143,143,0,0,0-.61-19.47c-1.21-9.48-12.4-14.24-19.37-14.29v72.75C178.81,217.39,183.23,211.53,186.52,205.37Z"/></g><path class="cls-12" d="M291.71,156.09A1.73,1.73,0,0,1,290.2,158h-55a1.73,1.73,0,0,1-1.51-1.88h0a1.73,1.73,0,0,1,1.51-1.89h55a1.73,1.73,0,0,1,1.51,1.89Z"/><path class="cls-12" d="M291.71,167.08A1.73,1.73,0,0,1,290.2,169h-55a1.73,1.73,0,0,1-1.51-1.88h0a1.73,1.73,0,0,1,1.51-1.89h55a1.73,1.73,0,0,1,1.51,1.89Z"/><path class="cls-12" d="M291.71,178.07A1.73,1.73,0,0,1,290.2,180h-55a1.73,1.73,0,0,1-1.51-1.88h0a1.73,1.73,0,0,1,1.51-1.89h55a1.73,1.73,0,0,1,1.51,1.89Z"/><path class="cls-12" d="M291.71,189.06a1.73,1.73,0,0,1-1.51,1.89h-55a1.73,1.73,0,0,1-1.51-1.89h0a1.73,1.73,0,0,1,1.51-1.89h55a1.73,1.73,0,0,1,1.51,1.89Z"/><path class="cls-12" d="M291.71,200a1.73,1.73,0,0,1-1.51,1.89h-55a1.73,1.73,0,0,1-1.51-1.89h0a1.73,1.73,0,0,1,1.51-1.88h55a1.73,1.73,0,0,1,1.51,1.88Z"/><path class="cls-12" d="M291.71,211a1.73,1.73,0,0,1-1.51,1.89h-55a1.73,1.73,0,0,1-1.51-1.89h0a1.73,1.73,0,0,1,1.51-1.88h55a1.73,1.73,0,0,1,1.51,1.88Z"/><path class="cls-12" d="M291.71,222a1.73,1.73,0,0,1-1.51,1.89h-55a1.73,1.73,0,0,1-1.51-1.89h0a1.73,1.73,0,0,1,1.51-1.88h55a1.73,1.73,0,0,1,1.51,1.88Z"/><path class="cls-12" d="M291.71,233a1.73,1.73,0,0,1-1.51,1.88h-55a1.73,1.73,0,0,1-1.51-1.88h0a1.73,1.73,0,0,1,1.51-1.88h55a1.73,1.73,0,0,1,1.51,1.88Z"/><path class="cls-12" d="M291.71,244a1.73,1.73,0,0,1-1.51,1.88h-55a1.73,1.73,0,0,1-1.51-1.88h0a1.73,1.73,0,0,1,1.51-1.89h55a1.73,1.73,0,0,1,1.51,1.89Z"/><rect class="cls-12" x="175.62" y="132.32" width="84.98" height="4.77"/><polygon class="cls-13" points="260.6 132.32 175.63 132.32 190.94 118.97 245.29 118.97 260.6 132.32"/><polygon class="cls-14" points="260.6 105.62 175.63 105.62 190.94 118.97 245.29 118.97 260.6 105.62"/><path class="cls-13" d="M228.45,90.36c0-7.11-4.63-12.87-10.33-12.87s-10.34,5.77-10.34,12.87H175.62v15.26h85V90.36Z"/></g></g></g></svg>