<svg xmlns="http://www.w3.org/2000/svg" xmlns:xlink="http://www.w3.org/1999/xlink" viewBox="0 0 260.63 269.1"><defs><style>.cls-1{fill:none;}.cls-2{clip-path:url(#clip-path);}.cls-3{fill:#92cdbf;}.cls-4{fill:#acecde;}.cls-5{fill:#fff;}.cls-6{fill:#3a2d19;}.cls-7{fill:#3d393f;}.cls-8{fill:#dbd0df;}.cls-9{fill:#1b1464;}.cls-10{fill:#b1b1b1;}</style><clipPath id="clip-path" transform="translate(-0.25 -0.25)"><circle class="cls-1" cx="103.41" cy="110.05" r="92.2"/></clipPath></defs><title>search_1</title><g id="Layer_2" data-name="Layer 2"><g id="Layer_1-2" data-name="Layer 1"><g class="cls-2"><rect class="cls-3" x="84.22" y="119.96" width="37.88" height="54.22"/><path class="cls-3" d="M78.09,90.2c.83,7.34-3.68,13.87-7.72,14.33s-9.9-4.9-10.73-12.24S62.27,78.54,67.37,78,77.27,82.86,78.09,90.2Z" transform="translate(-0.25 -0.25)"/><path class="cls-3" d="M128.72,90.2c-.83,7.34,3.68,13.87,7.72,14.33s9.9-4.9,10.73-12.24S144.54,78.54,139.45,78,129.55,82.86,128.72,90.2Z" transform="translate(-0.25 -0.25)"/><path class="cls-4" d="M138.32,84.93c0,24-19.33,51.62-34.91,51.62S68.5,108.93,68.5,84.93c0-43.95,15.63-42.71,34.91-42.71S138.32,41.48,138.32,84.93Z" transform="translate(-0.25 -0.25)"/><path class="cls-5" d="M123,143c0,.15-.7-.12-.7-.12L103.79,164s-19.3-20.56-19.24-21.17c-27.67,4.83-47.87,20-47.87,38,0,21.88,29.87,39.61,66.72,39.61s66.72-17.74,66.72-39.61C170.13,163,150.31,148,123,143Z" transform="translate(-0.25 -0.25)"/><path class="cls-6" d="M126.8,33.73c-2.59-1.37-7.41,0-7.41,0h0s-5.46-5-15.16-4.88c-8,.1-27,6.75-35.73,21.54a46.85,46.85,0,0,0-4.83,21c2.48,13.62,5.19,19.8,5.19,19.63v.17L69,91c3.36-1.24,3-24,6-25.4,25.51-12.48,40.1-9.93,40.16-10,13.86,6.29,19.25,23,21.22,32.34a1.18,1.18,0,0,0,2.32,0c1.32-6.93,3.26-17.5,3.75-22.17C144.38,47.18,134,37.52,126.8,33.73Z" transform="translate(-0.25 -0.25)"/><path class="cls-5" d="M170.13,180.87C170.13,163,150.31,148,123,143c0,.15-.7-.12-.7-.12L103.79,164s-19.3-20.56-19.24-21.17c-27.67,4.83-47.87,20-47.87,38,0,20.6,26.49,37.53,60.35,39.43l-2.58-33.74,9.33-9.33,9.33,9.33-2.57,33.69C144,218.14,170.13,201.31,170.13,180.87Z" transform="translate(-0.25 -0.25)"/><path class="cls-7" d="M103.79,177.23l-9.33,9.33L97,220.3q3.14.18,6.37.18,3.62,0,7.15-.22l2.57-33.69Z" transform="translate(-0.25 -0.25)"/><path class="cls-8" d="M103.79,164l-16.1,14-21.54-30.2s11.89-7.44,18.72-8.4Z" transform="translate(-0.25 -0.25)"/><path class="cls-8" d="M122.35,139.1,103.79,164l15.71,14,21.42-30.08S129.36,140.09,122.35,139.1Z" transform="translate(-0.25 -0.25)"/><polygon class="cls-7" points="103.55 182.4 93.13 173.06 103.55 163.73 113.96 173.06 103.55 182.4"/></g><path class="cls-9" d="M259.85,246.36a3.55,3.55,0,0,1,0,5l-17,16.95a3.52,3.52,0,0,1-5,0l-64.56-64.55,21.89-21.89-10.46-10.46.06-.07Z" transform="translate(-0.25 -0.25)"/><path class="cls-10" d="M195.22,181.87l-21.89,21.89L161.6,192a104.67,104.67,0,0,0,23.16-20.62Z" transform="translate(-0.25 -0.25)"/><path class="cls-9" d="M209,104.6a104,104,0,0,1-24.14,66.74L179,165.51l-.06.07L174.38,161l-22,22,9.09,9.09A104.36,104.36,0,1,1,209,104.6ZM104.61,193.08A88.48,88.48,0,1,0,16.13,104.6,88.58,88.58,0,0,0,104.61,193.08Z" transform="translate(-0.25 -0.25)"/><path class="cls-9" d="M179,165.51l5.83,5.83-.06.07-5.83-5.83Z" transform="translate(-0.25 -0.25)"/><path class="cls-9" d="M178.93,165.58l5.83,5.83A104.67,104.67,0,0,1,161.6,192L157,187.47Z" transform="translate(-0.25 -0.25)"/><path class="cls-9" d="M178.93,165.58,157,187.47,161.6,192l-.09.05L152.42,183l22-22Z" transform="translate(-0.25 -0.25)"/><path class="cls-10" d="M161.6,192l11.73,11.73-.07.07-11.75-11.75Z" transform="translate(-0.25 -0.25)"/></g></g></svg>