<svg xmlns="http://www.w3.org/2000/svg" viewBox="0 0 224.58 187.5"><defs><style>.cls-1{isolation:isolate;}.cls-2{fill:#77a736;}.cls-3{fill:#f0f0f0;}.cls-4{fill:#faec21;}.cls-5{fill:#8ac43f;}.cls-6{opacity:0.3;mix-blend-mode:multiply;}.cls-7{fill:#0071ba;}.cls-8{opacity:0.5;}.cls-9{fill:#e09000;}.cls-10{fill:red;}</style></defs><title>speak</title><g class="cls-1"><g id="Layer_2" data-name="Layer 2"><g id="Layer_1-2" data-name="Layer 1"><path class="cls-2" d="M75.06,183.39a3.77,3.77,0,0,1-3.72,3.82l-20.74.29a3.77,3.77,0,0,1-3.82-3.72L45.5,91.48a3.77,3.77,0,0,1,3.72-3.82L70,87.36a3.77,3.77,0,0,1,3.82,3.72Z"/><circle class="cls-3" cx="32.25" cy="71.96" r="32.25" transform="translate(-0.99 0.45) rotate(-0.79)"/><circle class="cls-4" cx="198.17" cy="70.15" r="26.41" transform="translate(-0.95 2.76) rotate(-0.8)"/><polygon class="cls-3" points="93.22 33.23 79.66 71.3 94.28 108.98 192.53 135.59 191.62 69.75 190.7 3.9 93.22 33.23"/><path class="cls-5" d="M94.29,110a3.77,3.77,0,0,1-3.72,3.82l-61.23.85a3.77,3.77,0,0,1-3.82-3.72L24.45,34.18a3.77,3.77,0,0,1,3.72-3.82l61.23-.85a3.78,3.78,0,0,1,3.82,3.72Z"/><path class="cls-5" d="M205.64,136.39a3.77,3.77,0,0,1-3.72,3.82l-5.56.08a3.77,3.77,0,0,1-3.82-3.72L190.7,3.9A3.77,3.77,0,0,1,194.42.08L200,0a3.77,3.77,0,0,1,3.82,3.72Z"/><g class="cls-6"><path class="cls-7" d="M82.83,42.79a3.77,3.77,0,0,1-3.72,3.82l-40.18.56a3.77,3.77,0,0,1-3.82-3.72l0-2.09a3.78,3.78,0,0,1,3.72-3.82L79,37A3.77,3.77,0,0,1,82.8,40.7Z"/></g><g class="cls-6"><path class="cls-7" d="M83.11,62.79a3.77,3.77,0,0,1-3.72,3.82l-40.19.56a3.77,3.77,0,0,1-3.82-3.72l0-2.08a3.77,3.77,0,0,1,3.72-3.82L79.26,57a3.77,3.77,0,0,1,3.82,3.72Z"/></g><g class="cls-6"><path class="cls-7" d="M83.39,82.78a3.77,3.77,0,0,1-3.72,3.82l-40.18.56a3.78,3.78,0,0,1-3.83-3.72l0-2.08a3.77,3.77,0,0,1,3.72-3.82L79.53,77a3.77,3.77,0,0,1,3.82,3.72Z"/></g><g class="cls-6"><path class="cls-7" d="M83.67,102.78a3.77,3.77,0,0,1-3.72,3.82l-40.18.56a3.77,3.77,0,0,1-3.82-3.72l0-2.08a3.77,3.77,0,0,1,3.72-3.82L79.81,97a3.77,3.77,0,0,1,3.82,3.72Z"/></g><g class="cls-8"><path class="cls-2" d="M46.78,183.78a3.77,3.77,0,0,0,3.82,3.72l20.74-.29a3.77,3.77,0,0,0,3.72-3.82L74.1,114l-28.28.39Z"/><path class="cls-9" d="M0,72.08c0,.11,0,.22,0,.33a32.26,32.26,0,0,0,25.41,31.07L25,72.08Z"/><polygon class="cls-4" points="191.98 95.83 191.98 95.83 191.72 77.07 191.98 95.83"/><path class="cls-9" d="M205.07,95.64A26.42,26.42,0,0,0,224.5,72.08H204.75Z"/><path class="cls-9" d="M171.84,72.08H93.76L94.28,109l98.25,26.61L192,95.83A26.42,26.42,0,0,1,171.84,72.08Z"/><path class="cls-9" d="M191.65,72.08H171.84A26.42,26.42,0,0,0,192,95.83l-.26-18.76Z"/><path class="cls-5" d="M83.36,80.83l0,2a3.77,3.77,0,0,1-3.72,3.82l-18.81.26-.35.63L70,87.36a3.77,3.77,0,0,1,3.82,3.72l.08,6,6-.08a3.77,3.77,0,0,1,3.82,3.72l0,2.08a3.77,3.77,0,0,1-3.72,3.82l-6,.08.1,7.33,16.48-.23A3.77,3.77,0,0,0,94.29,110v-1h0Z"/><path class="cls-5" d="M64.07,77.2,79.53,77a3.75,3.75,0,0,1,2.8,1.21L80,72.08H64.49A32.42,32.42,0,0,1,64.07,77.2Z"/><path class="cls-5" d="M39.76,107.16A3.76,3.76,0,0,1,36,104a32.32,32.32,0,0,1-10.59-.52l.1,7.44a3.77,3.77,0,0,0,3.82,3.72l16.47-.23-.1-7.33Z"/><rect class="cls-5" x="45.76" y="106.88" width="28.28" height="7.33" transform="translate(-1.52 0.84) rotate(-0.79)"/><path class="cls-5" d="M52.12,97.36l21.75-.3-.08-6A3.77,3.77,0,0,0,70,87.36l-9.45.13A32.4,32.4,0,0,1,52.12,97.36Z"/><path class="cls-5" d="M36,104a3.63,3.63,0,0,1-.06-.55l0-2.08a3.77,3.77,0,0,1,3.72-3.82l6-.08-.08-6a3.77,3.77,0,0,1,3.72-3.82l11.29-.16.35-.63-21.37.3a3.78,3.78,0,0,1-3.83-3.72l0-2.08a3.77,3.77,0,0,1,3.72-3.82l24.72-.34a32.42,32.42,0,0,0,.42-5.12H25l.44,31.4A32.32,32.32,0,0,0,36,104Z"/><path class="cls-5" d="M45.5,91.48l.08,6,6.54-.09a32.4,32.4,0,0,0,8.39-9.87l-11.29.16A3.77,3.77,0,0,0,45.5,91.48Z"/><path class="cls-5" d="M80,72.08l2.37,6.11a3.74,3.74,0,0,1,1,2.51v.13L94.28,109h0l-.51-36.91Z"/><path class="cls-5" d="M192,95.83l.57,40.75a3.77,3.77,0,0,0,3.82,3.72l5.56-.08a3.77,3.77,0,0,0,3.72-3.82l-.57-40.75a26.54,26.54,0,0,1-13.1.18Z"/><path class="cls-5" d="M191.65,72.08l.07,5L192,95.83a26.54,26.54,0,0,0,13.1-.18l-.33-23.57Z"/><polygon class="cls-5" points="191.72 77.07 191.65 72.08 191.65 72.08 191.72 77.07"/><path class="cls-5" d="M79.53,77l-15.46.21a32,32,0,0,1-3.22,9.67l18.81-.26a3.77,3.77,0,0,0,3.72-3.82l0-2-1-2.65A3.75,3.75,0,0,0,79.53,77Z"/><g class="cls-6"><path class="cls-7" d="M79.53,77l-15.46.21a32,32,0,0,1-3.22,9.67l18.81-.26a3.77,3.77,0,0,0,3.72-3.82l0-2-1-2.65A3.75,3.75,0,0,0,79.53,77Z"/></g><path class="cls-5" d="M39.35,77.54a3.77,3.77,0,0,0-3.72,3.82l0,2.08a3.78,3.78,0,0,0,3.83,3.72l21.37-.3a32,32,0,0,0,3.22-9.67Z"/><g class="cls-6"><path class="cls-7" d="M39.35,77.54a3.77,3.77,0,0,0-3.72,3.82l0,2.08a3.78,3.78,0,0,0,3.83,3.72l21.37-.3a32,32,0,0,0,3.22-9.67Z"/></g><path class="cls-5" d="M83.36,80.7a3.74,3.74,0,0,0-1-2.51l1,2.65Z"/><g class="cls-6"><path class="cls-7" d="M83.36,80.7a3.74,3.74,0,0,0-1-2.51l1,2.65Z"/></g><path class="cls-5" d="M36,104a3.76,3.76,0,0,0,3.76,3.17l6-.08-.08-5.78A32,32,0,0,1,36,104Z"/><g class="cls-6"><path class="cls-7" d="M36,104a3.76,3.76,0,0,0,3.76,3.17l6-.08-.08-5.78A32,32,0,0,1,36,104Z"/></g><path class="cls-5" d="M79.95,106.6a3.77,3.77,0,0,0,3.72-3.82l0-2.08A3.77,3.77,0,0,0,79.81,97l-6,.08.13,9.63Z"/><g class="cls-6"><path class="cls-7" d="M79.95,106.6a3.77,3.77,0,0,0,3.72-3.82l0-2.08A3.77,3.77,0,0,0,79.81,97l-6,.08.13,9.63Z"/></g><path class="cls-5" d="M45.63,101.3l.08,5.78L74,106.69l-.13-9.63-21.75.3A32.19,32.19,0,0,1,45.63,101.3Z"/><g class="cls-6"><path class="cls-7" d="M45.63,101.3l.08,5.78L74,106.69l-.13-9.63-21.75.3A32.19,32.19,0,0,1,45.63,101.3Z"/></g><path class="cls-5" d="M45.58,97.45l-6,.08a3.77,3.77,0,0,0-3.72,3.82l0,2.08A3.63,3.63,0,0,0,36,104a32,32,0,0,0,9.63-2.69Z"/><g class="cls-6"><path class="cls-7" d="M45.58,97.45l-6,.08a3.77,3.77,0,0,0-3.72,3.82l0,2.08A3.63,3.63,0,0,0,36,104a32,32,0,0,0,9.63-2.69Z"/></g><path class="cls-5" d="M52.12,97.36l-6.54.09.05,3.85A32.19,32.19,0,0,0,52.12,97.36Z"/><g class="cls-6"><path class="cls-7" d="M52.12,97.36l-6.54.09.05,3.85A32.19,32.19,0,0,0,52.12,97.36Z"/></g><path class="cls-10" d="M24.54,40.65A32.25,32.25,0,0,0,0,72.08H25Z"/><path class="cls-10" d="M204.36,44.47l.38,27.6H224.5c.05-.76.08-1.52.07-2.29A26.42,26.42,0,0,0,204.36,44.47Z"/><path class="cls-10" d="M171.84,72.08c0-.52-.06-1-.07-1.56a26.42,26.42,0,0,1,19.5-25.86L190.7,3.9,93.23,33.23l.54,38.84Z"/><path class="cls-10" d="M171.76,70.51c0,.52,0,1,.07,1.56h19.81l-.38-27.42A26.42,26.42,0,0,0,171.76,70.51Z"/><path class="cls-10" d="M81.61,65.83a3.73,3.73,0,0,1-2.22.78l-15.3.21a32.53,32.53,0,0,1,.41,4.69c0,.19,0,.37,0,.56H80l-.3-.77Z"/><path class="cls-10" d="M35.37,39.86a3.77,3.77,0,0,1,3.42-2.32L79,37A3.77,3.77,0,0,1,82.8,40.7l0,2.09a3.77,3.77,0,0,1-3.72,3.82L52.64,47a32.37,32.37,0,0,1,8.3,10.26L79.26,57a3.77,3.77,0,0,1,3.82,3.72v1L93.23,33.23a3.78,3.78,0,0,0-3.82-3.72l-61.23.85a3.77,3.77,0,0,0-3.72,3.82l.09,6.46a32,32,0,0,1,10.83-.78Z"/><path class="cls-10" d="M64.49,72.08c0-.19,0-.37,0-.56a32.53,32.53,0,0,0-.41-4.69l-24.88.35a3.77,3.77,0,0,1-3.82-3.72l0-2.08a3.77,3.77,0,0,1,3.72-3.82l21.87-.3A32.37,32.37,0,0,0,52.64,47l-13.71.19a3.77,3.77,0,0,1-3.82-3.72l0-2.09a3.75,3.75,0,0,1,.29-1.5,32,32,0,0,0-10.83.78L25,72.08Z"/><path class="cls-10" d="M83.11,62.79a3.76,3.76,0,0,1-1.5,3L79.66,71.3l.3.77h13.8l-.54-38.84L83.09,61.67Z"/><path class="cls-10" d="M197.8,43.74a26.41,26.41,0,0,1,6.56.73L203.8,3.72A3.77,3.77,0,0,0,200,0l-5.56.08A3.77,3.77,0,0,0,190.7,3.9l.57,40.75A26.45,26.45,0,0,1,197.8,43.74Z"/><path class="cls-10" d="M191.27,44.65l.35,25.1,0,2.33h13.1l-.38-27.6a26.59,26.59,0,0,0-13.1.18Z"/><polygon class="cls-10" points="191.27 44.65 190.7 3.9 191.27 44.65 191.27 44.65"/><polygon class="cls-10" points="191.27 44.65 191.27 44.65 191.65 72.08 191.65 72.08 191.62 69.75 191.27 44.65"/><path class="cls-10" d="M82.83,42.79l0-2.09A3.77,3.77,0,0,0,79,37l-40.18.56a3.77,3.77,0,0,0-3.42,2.32A32.1,32.1,0,0,1,52.64,47l26.47-.37A3.77,3.77,0,0,0,82.83,42.79Z"/><path class="cls-10" d="M35.08,41.37l0,2.09a3.77,3.77,0,0,0,3.82,3.72L52.64,47a32.1,32.1,0,0,0-17.27-7.12A3.75,3.75,0,0,0,35.08,41.37Z"/><path class="cls-10" d="M81.61,65.83l1.48-4.17v-1A3.77,3.77,0,0,0,79.26,57l-18.31.25a32,32,0,0,1,3.14,9.59l15.3-.21A3.73,3.73,0,0,0,81.61,65.83Z"/><path class="cls-10" d="M39.07,57.54a3.77,3.77,0,0,0-3.72,3.82l0,2.08a3.77,3.77,0,0,0,3.82,3.72l24.88-.35a32,32,0,0,0-3.14-9.59Z"/><path class="cls-10" d="M83.11,62.79l0-1.12-1.48,4.17A3.76,3.76,0,0,0,83.11,62.79Z"/></g></g></g></g></svg>