<svg xmlns="http://www.w3.org/2000/svg" xmlns:xlink="http://www.w3.org/1999/xlink" viewBox="0 0 343.58 306"><defs><style>.cls-1,.cls-14{fill:none;}.cls-2{clip-path:url(#clip-path);}.cls-3{fill:#d8a68b;}.cls-4{fill:#3c3c3b;}.cls-5{fill:#e9bfa6;}.cls-6{fill:#f1d6bb;}.cls-7{fill:#2f343a;}.cls-8{fill:#9fb1bd;}.cls-9{fill:#fff;}.cls-10{clip-path:url(#clip-path-2);}.cls-11{fill:#f3e2d5;}.cls-12{fill:#f2d0ba;}.cls-13{fill:#7d4e24;}.cls-14{stroke:#3c3c3b;stroke-linecap:round;stroke-linejoin:round;stroke-width:0;}.cls-15{fill:#f4f4f4;}.cls-16{fill:#ebebeb;}.cls-17{fill:#575756;}.cls-18{fill:#1d1d1b;}.cls-19{fill:#c0272d;}.cls-20{clip-path:url(#clip-path-3);}.cls-21{fill:#bfcfd7;}.cls-22{fill:#a6bcc7;}.cls-23{fill:#14a799;}.cls-24{fill:#7f96a2;}.cls-25{fill:#8a5f3c;}</style><clipPath id="clip-path"><ellipse class="cls-1" cx="305.64" cy="106.84" rx="60.32" ry="82.31"/></clipPath><clipPath id="clip-path-2"><ellipse class="cls-1" cx="69.31" cy="94.58" rx="69.31" ry="94.58"/></clipPath><clipPath id="clip-path-3"><ellipse class="cls-1" cx="189.05" cy="184.33" rx="89.16" ry="121.67"/></clipPath></defs><title>survey_1</title><g id="Layer_2" data-name="Layer 2"><g id="Layer_1-2" data-name="Layer 1"><g class="cls-2"><polygon class="cls-3" points="314.48 154.03 305.86 182.59 296.81 154.03 296.81 127.6 314.48 127.6 314.48 154.03"/><path class="cls-4" d="M305.64,173.65v15.5H267.7c1-6.45,5.53-35.85,7.69-38.93,2.48-3.52,21.42-6.88,21.42-6.88Z"/><path class="cls-4" d="M314.48,143.35s18.93,3.35,21.42,6.88c2.16,3.07,6.65,32.47,7.69,38.92H305.64v-15.5Z"/><path class="cls-5" d="M305.64,52c8.58,0,22.14,6.65,22.14,37.83,0,18-4.3,29.79-6.18,33.06-1.72,3-11.42,9.39-16,9.39Z"/><path class="cls-5" d="M332,97.24c.38-5-1.36-9.4-3.88-9.87s-4.88,3.18-5.25,8.16,1.36,9.4,3.88,9.87S331.67,102.22,332,97.24Z"/><path class="cls-6" d="M305.64,52c-8.58,0-22.14,6.65-22.14,37.83,0,18,4.3,29.79,6.17,33.06,1.72,3,11.42,9.39,16,9.39Z"/><path class="cls-6" d="M279.24,97.24c-.38-5,1.36-9.4,3.88-9.87s4.88,3.18,5.26,8.16-1.36,9.4-3.88,9.87S279.62,102.22,279.24,97.24Z"/><path class="cls-7" d="M286.45,97.78H288s-.93-8.12,1.8-10.74V81.8s-1.05-.16-1.05-6.34,5.39-10.57,16.92-10.57V42.3s-22.79.66-22.79,23.23V87.38a3,3,0,0,1,2.85,1C287,89.81,286.45,97.78,286.45,97.78Z"/><path class="cls-7" d="M324.83,97.78h-1.53s.93-8.12-1.8-10.74V81.8s1.05-.16,1.05-6.34-5.39-10.57-16.92-10.57V42.3s22.79-.71,22.79,21.86V87.38a3,3,0,0,0-2.85,1C324.3,89.81,324.83,97.78,324.83,97.78Z"/><polygon class="cls-8" points="305.64 173.65 299.64 145.66 297.43 158.28 305.64 173.65"/><polygon class="cls-9" points="296.56 140.46 299.71 146.04 297.43 158.28 292.58 149.37 296.56 140.46"/><polygon class="cls-8" points="305.64 173.65 311.08 145.33 313.86 158.28 305.64 173.65"/><polygon class="cls-9" points="314.73 140.46 311.01 145.72 313.86 158.28 319.12 149.37 314.73 140.46"/><path class="cls-9" d="M305.64,118.83c4,0,7.24-1.8,7.24-4H298.41C298.41,117,301.64,118.83,305.64,118.83Z"/></g><g class="cls-10"><ellipse class="cls-1" cx="69.31" cy="94.58" rx="69.31" ry="94.58"/><path class="cls-11" d="M81.32,130.86a37,37,0,0,1-4.43-18.15c0-1.51-.92-2.17-1.77-2a1.83,1.83,0,0,0-.36-.44c-4.31-3.74-9.87-2.8-14.47-.55a1.53,1.53,0,0,0-.72,1.08c-.55.12-1,.76-.83,1.77,1.41,8.21-.74,13.66-3.52,20.58A20,20,0,0,0,54.1,145c2,9.41,9.17,13.73,15.92,13.22,6.54-.5,13.07-5,14-14.61A22.15,22.15,0,0,0,81.32,130.86Z"/><path class="cls-12" d="M93.42,74.12a74,74,0,0,0,.08-12.8c-2-21.09-22.59-18.81-33.9-18.7-6.79.06-10.89,4.62-12.71,13.48A91.76,91.76,0,0,0,45.19,75a2.85,2.85,0,0,0-3,1.38c-1.2,1.75-1.25,4.47-1,6.7s.82,4.63,2.32,5.84a2.71,2.71,0,0,0,2.64.56l.11,1a1.47,1.47,0,0,0,.17.53,50.06,50.06,0,0,0,5.22,16.79c7.11,13.21,20.26,16.9,29.69,6,5-5.77,8-14,9.63-22.48.14-.7.27-1.4.41-2.12a1,1,0,0,0,.51.1C96.7,88.94,97.6,75.77,93.42,74.12Z"/><path class="cls-13" d="M95.55,75.45a.61.61,0,0,0,0-.17c.45-8.29.75-17.05-1.75-24.85A22.31,22.31,0,0,0,82.36,36.86c-6.19-3.28-13.42-5.34-20.08-4.37-4.43.65-9.77,3.45-10.74,10-11-1-9.39,20.25-9.16,31-.07.46-.13.92-.18,1.39a.93.93,0,0,0,.2.71c0,.16,0,.33,0,.48h0l-.06.1c-.11.21.12.42.25.26,1.16-1.48,2.76-.54,3.39,1.21s.24,3.47.33,5.27c0,.18.11.26.21.25s.14.23.27.2a8,8,0,0,1,1-.2,1.57,1.57,0,0,0,.86-.17.33.33,0,0,0,.12-.3c.1.07.24,0,.25-.2.19-4.61,2.9-6.77,4.82-10a29.57,29.57,0,0,0,2.64-5.9,34.62,34.62,0,0,0,1.37-6.17c1.51,4.17,5.87,6.72,8.88,8.32a23,23,0,0,0,10.29,2.74c3.15.12,6.75.22,9.47,2.24l0,.05.31.22a9.52,9.52,0,0,1,2.87,4.35c.05.53.09,1.07.13,1.6,0,.29,0,.59,0,.87s-.08.45.1.5l.06,0a1.1,1.1,0,0,0,.06.11.18.18,0,0,0,.3,0c.44.16.94.34,1.29.11a.24.24,0,0,0,.08-.1c.14.15.39.05.39-.24a16.42,16.42,0,0,1,.37-4.41c.2-.68.53-1.42,1.07-1.62s1.07.38,1.31,1.12c0,.15.21.1.24,0a1.45,1.45,0,0,0,0-.2l.17.16c.32.31.63-.42.31-.71Z"/><path class="cls-14" d="M65.67,133.87s0,0,0,0"/><path class="cls-15" d="M83.11,134.48a1,1,0,0,0,0-.28,8.76,8.76,0,0,0-1.1-2.55,12.07,12.07,0,0,0-1.46-2.2.27.27,0,0,0-.32-.1c-.13-.52-.6-.86-.94-.33a12,12,0,0,1-5.19,4.42c-.14-.3-.38-.48-.7-.31a10.48,10.48,0,0,1-4.93,1.33c-1.37,0-2.7-.62-4-.36l0,0A13,13,0,0,1,61.12,133c-1.51-.83-2.62-2.33-4-3.33.1-.67-.61-1.09-1-.46-6.32,11.4-8,27.08-5.05,40.76C53.9,182.8,61.69,194,72.22,192.42c9.91-1.49,15.08-13,16.38-25.49C89.8,155.41,88,143.78,83.11,134.48Z"/><path class="cls-16" d="M64,133.37c-1.66-.3-6.16-1.92-7.09-4.64a1.38,1.38,0,0,0-.09-.35,2.37,2.37,0,0,1-.05-.24c0-.34-.31-.41-.5-.29a.51.51,0,0,0-.47.31c-2.06,3.47-3.62,5.38-1.7,9.69a31,31,0,0,0,7,9.87c.41.39,1-.13,1-.76a31.42,31.42,0,0,1,2.42-12.43A.82.82,0,0,0,64,133.37Z"/><path class="cls-16" d="M80.86,128.28a.59.59,0,0,0-.16-.12c-.13-.54-.66-.92-1.06-.4a15.24,15.24,0,0,1-6.19,4.84,1.7,1.7,0,0,0-.25,1.34,18.85,18.85,0,0,1,1.74,10.59c-.08.58.29,1.33.78,1.07C80.11,143.27,85.7,133.84,80.86,128.28Z"/><path class="cls-17" d="M77.42,180.18c-2-12.62-3.44-25.65-6.23-38a.49.49,0,0,0,.38-.41c.61-2.3,1.37-5.22,1.07-7.75.27-.35,0-1.15-.42-1.06a.33.33,0,0,0-.22,0,8.89,8.89,0,0,1-1,.25,13.19,13.19,0,0,1-2,.15,9.23,9.23,0,0,1-2.07-.3.36.36,0,0,0-.42.2l-.78,0c-.14,0-.2.13-.21.27a.61.61,0,0,0-.11.47,36.31,36.31,0,0,0,.91,4,21.15,21.15,0,0,0,1,3.51.45.45,0,0,0,.1.14.35.35,0,0,0,.13.27l.06.06a.42.42,0,0,0,0,.12c-2,12.23-2.41,25.19-3.45,37.63a.54.54,0,0,0,.27.59c.9,8.75,11.28,9.71,12.78.88,0,0,0-.06,0-.09A1,1,0,0,0,77.42,180.18Z"/><path class="cls-4" d="M111.87,198.79c0-.13,0-.26-.05-.39a1,1,0,0,0,0-.17c-2-14.25-4.22-28.65-8.47-42-1.64-5.16-3.42-10.68-6.81-14.16-3.74-3.83-8.86-6-13.24-8.09a.26.26,0,0,0-.34.14c-.11-.06-.26,0-.31.18-1.35,5.33-4.27,9.57-6.71,14s-4.76,8.61-7.09,13c-5.39-8.22-11.64-16.28-15.55-25.86a.6.6,0,0,0-.08-.2L53.1,135c-.07-.17-.21-.09-.24.05a.34.34,0,0,0-.12,0C44.88,139.94,36.86,146,33.91,157.6c-1.6,6.29-2.18,13.06-3,19.59q-1.4,10.95-2.81,21.89c-.45-.4-.91-.79-1.35-1.22s-.75.4-.45.79c.57.73,1.16,1.41,1.77,2.07a.8.8,0,0,0,.28.31c10.75,11.34,26.9,12.44,39.84,12.29a97.18,97.18,0,0,0,24.53-3.5c6.13-1.68,14.1-3.13,18.45-10C111.54,199.88,112,199.45,111.87,198.79Z"/><path class="cls-18" d="M83.56,134.1c-.12-.61-.82-.34-.69.26,1.11,5.06,1.23,10.86,2.63,15.74h-.07c-2.09,1-4.25,1.62-6.35,2.55-.23-.12-.52,0-.51.46.15,4.43.26,9,.71,13.38a.39.39,0,0,0-.15.18c-3.15,7.47-6,15.32-9,23-.24-9.48-.63-19-1.05-28.36,0-.47-.54-.48-.54,0,.08,9.24.16,18.54.35,27.82-3.29-8.35-7.07-17-11.58-24.1a51.23,51.23,0,0,0,.26-13.62c0-.16-.11-.22-.2-.21a.41.41,0,0,0-.29-.28,30.94,30.94,0,0,1-4-.79,27.17,27.17,0,0,0-2.74-.84c.75-2.65,1.26-5.47,1.84-8.2.34-1.58,1.31-4,.89-5.69-.09-.36-.45-.29-.47.09-.13,2.2-1,4.7-1.5,6.84-.52,2.36-1.12,4.73-1.47,7.15,0,.27.08.45.22.5,2,1.48,4.94,1.81,7.21,1.9h0c-.39,4.33-.51,9-.52,13.32a.43.43,0,0,0,.3.45c3.92,8.74,8.24,17.08,12,25.95l0,0c.17,7.67.41,15.32.78,22.92,0,.56.64.57.65,0,.08-7.7,0-15.46-.19-23.23l0,0A156.32,156.32,0,0,0,79.76,167a.61.61,0,0,0,0-.2.42.42,0,0,0,.09-.26c.11-4.35-.2-8.84-.51-13.17a20.8,20.8,0,0,0,6.24-2.48.51.51,0,0,0,.2-.52.21.21,0,0,0,0-.08C86.23,145.12,84.52,139.08,83.56,134.1Z"/></g><rect class="cls-19" x="107.7" y="172.66" width="162.55" height="1.34"/><polygon class="cls-19" points="234.17 248.83 233.35 248.09 269.84 172.96 270.66 173.7 234.17 248.83"/><polygon class="cls-19" points="143.92 248.84 107.29 173.7 108.11 172.96 144.74 248.09 143.92 248.84"/><g class="cls-20"><rect class="cls-3" x="175.99" y="215.02" width="26.11" height="39.07"/><path class="cls-21" d="M172.82,238.3s-24.83,5-28.5,10.17c-3.19,4.54-9.83,48-11.36,57.54H189V240.14Z"/><path class="cls-22" d="M205.27,238.3s24.83,5,28.49,10.17c3.19,4.54,9.83,48,11.37,57.54H189V240.14Z"/><polygon class="cls-23" points="187.36 246.59 184.06 292.99 189.05 305.83 194.04 292.99 190.73 246.59 187.36 246.59"/><path class="cls-23" d="M193.51,246.2,189,252.29l-4.46-6.08,4.46-6.08Z"/><path class="cls-5" d="M189,103.22c12.68,0,32.73,9.84,32.73,55.92,0,26.61-6.36,44-9.13,48.87-2.55,4.44-16.88,13.89-23.6,13.89Z"/><path class="cls-5" d="M228.08,170.13c.56-7.36-2-13.9-5.74-14.59s-7.21,4.7-7.77,12.07,2,13.9,5.74,14.6S227.52,177.49,228.08,170.13Z"/><path class="cls-6" d="M189,103.22c-12.68,0-32.73,9.84-32.73,55.92,0,26.61,6.36,44,9.13,48.87,2.55,4.44,16.88,13.89,23.6,13.89Z"/><path class="cls-6" d="M150,170.13c-.56-7.36,2-13.9,5.74-14.59s7.21,4.7,7.77,12.07-2,13.9-5.74,14.6S150.57,177.49,150,170.13Z"/><polygon class="cls-9" points="189.05 240.14 175.79 232.87 172.53 237.39 179.12 257.35 189.05 240.14"/><polygon class="cls-9" points="189.05 240.14 202.3 232.87 205.57 237.39 198.97 257.35 189.05 240.14"/><rect class="cls-24" x="160.33" y="286.17" width="16.54" height="4.98"/><rect class="cls-24" x="201.24" y="286.17" width="16.54" height="4.98"/><path class="cls-25" d="M160.68,170.94h2.26s-1.37-12,2.66-15.88v-7.75s-1.56-.25-1.56-9.38,8-15.63,25-15.63v-28s-33.68,5-33.68,38.32v22.94a4.48,4.48,0,0,1,4.21,1.41C161.47,159.14,160.68,170.94,160.68,170.94Z"/><path class="cls-25" d="M217.09,170.94h-2.26s1.37-12-2.66-15.88v-7.75s1.56-.25,1.56-9.38-8-15.63-25-15.63v-28s33.68,5,33.68,38.32v22.94A4.48,4.48,0,0,0,218.2,157C216.3,159.14,217.09,170.94,217.09,170.94Z"/><path class="cls-9" d="M189,202c5.91,0,10.7-2.66,10.7-5.95h-21.4C178.35,199.38,183.14,202,189,202Z"/></g></g></g></svg>