<svg xmlns="http://www.w3.org/2000/svg" viewBox="0 0 198.44 197.51"><defs><style>.cls-1{fill:#57291e;}.cls-1,.cls-10,.cls-11,.cls-12,.cls-2,.cls-3,.cls-4,.cls-5,.cls-6,.cls-8,.cls-9{fill-rule:evenodd;}.cls-2{fill:#234444;}.cls-3,.cls-7{fill:#d0a785;}.cls-4{fill:#ffd6b6;}.cls-5{fill:#fff;}.cls-6{fill:#3f73a0;}.cls-8{fill:#f1c9a8;}.cls-9{fill:#92b8da;}.cls-10{fill:#cbcbcb;}.cls-11{fill:#fb8c25;}.cls-12{fill:#ffe6d3;}</style></defs><title>teach_1</title><g id="Layer_2" data-name="Layer 2"><g id="Layer_1-2" data-name="Layer 1"><path class="cls-1" d="M85.57,54C78.61,92,64.74,159.58,54.25,159.58S23.2,86.92,19.16,58.91C15.68,34.78,22.3-12.37,66.31,3,81.06,2.09,91.62,21.11,85.57,54Z"/><path class="cls-2" d="M26.17,183.07c-.76,2-1.65,4.67-2.58,7.93a82.63,82.63,0,0,0,61.52,1.12,66.2,66.2,0,0,0-3-9Z"/><path class="cls-3" d="M143.74,116.74l2.2,2.79a121.68,121.68,0,0,0,2.61-13.61Z"/><path class="cls-4" d="M148.74,104.3a4.1,4.1,0,0,0-.27,2.12C148.57,105.71,148.66,105,148.74,104.3Z"/><path class="cls-4" d="M143.74,116.74l2.2,2.79a121.68,121.68,0,0,0,2.61-13.61Z"/><path class="cls-5" d="M136,117.61l7.66,9.76q1.58-4.84,2.75-9.9l-4.72-6Z"/><path class="cls-2" d="M82.95,118.88,81.4,95.49l9.88-2.07s25.33,35,28.56,39.21l17.57-17.83a0,0,0,0,1,0,0l7.2,9.38a115.24,115.24,0,0,1-10,23.73l-11.05,11.21c-5.07,5.14-9.16,1-11-1.39q-14.82-19.45-29.75-38.8S82.95,118.9,82.95,118.88Z"/><path class="cls-6" d="M23,190.74c7.87-22.29,5.15-25.93-2.2-46.21-6.66-18.39,6.85-28.23-3.19-51C26.51,87,38,84.31,44.93,77.81c3.28,3.33,5.62,4.08,9.35,4.08s6.19-.87,9.47-4.19C68.87,82.5,82,86.55,91.3,93.54c-9.58,23.37,3.4,27.22-3.19,51-5.57,20.11-14.6,19.18-2.64,47l.15.36A82.65,82.65,0,0,1,23,190.74Z"/><polygon class="cls-5" points="36.74 83.3 35.91 108.75 54.41 162.82 72.65 108.75 71.52 82.6 63.75 77.7 44.94 77.81 36.74 83.3"/><rect class="cls-7" x="44.94" y="68.92" width="18.48" height="22.04"/><path class="cls-8" d="M54.28,81.9c9.26,0,17.83-12.19,22.36-27.12a1.58,1.58,0,0,0,.89.58c1.84.35,4-3.63,4.71-8.9s-.12-9.82-2-10.18a1.21,1.21,0,0,0-.39,0c.9-18.5-5.76-35.6-25.61-35.6S27.76,17.78,28.68,36.31a1.23,1.23,0,0,0-.6,0c-1.84.35-2.72,4.91-2,10.18s2.87,9.25,4.71,8.9a1.71,1.71,0,0,0,1-.77C36.37,69.6,45,81.9,54.28,81.9Z"/><path class="cls-9" d="M57.35,104.59l1.29-3.13L54.28,89.31l-4.28,12,1.37,3.33Z"/><polygon class="cls-10" points="44.93 77.81 54.28 89.31 47.63 109.79 39.4 82.04 44.93 77.81"/><polygon class="cls-2" points="39.46 81.48 54.28 163.11 29.89 118.33 33.09 110.51 26.13 104.12 34.26 84.57 39.46 81.48"/><polygon class="cls-10" points="63.75 77.7 54.28 89.31 60.93 109.79 69.28 81.92 63.75 77.7"/><polygon class="cls-9" points="51.37 112.2 57.35 112.2 60.45 146.71 54.28 163.11 48.34 146.71 51.37 112.2"/><polygon class="cls-5" points="44.94 77.81 54.28 89.31 47.48 104.73 39.41 82.03 44.94 77.81"/><polygon class="cls-2" points="69.46 81.31 54.28 163.11 78.68 118.33 75.47 110.51 82.43 104.12 74.96 84.23 69.46 81.31"/><polygon class="cls-6" points="69.46 81.31 54.28 163.11 76.31 114.75 72.65 108.75 79.7 102.44 74.96 84.23 69.46 81.31"/><polygon class="cls-5" points="63.75 77.7 54.28 89.31 61.08 104.73 69.28 81.92 63.75 77.7"/><path class="cls-9" d="M51.37,104h6a10.29,10.29,0,0,1,0,8.7h-6A10.3,10.3,0,0,1,51.37,104Z"/><path class="cls-2" d="M53.45,197.48c-.28-9.37.1-17.28,1.18-35.25,1.07,18,1.54,25.89,1.31,35.27h-.18Q54.6,197.51,53.45,197.48Z"/><path class="cls-8" d="M80.36,39.57c1.79.46,2.56,4.35,1.72,8.69s-3,7.49-4.76,7-2.56-4.35-1.72-8.69S78.57,39.11,80.36,39.57Z"/><path class="cls-1" d="M80.25,36.26C81.17,17.76,74.39.66,54.18.66S27.17,17.78,28.1,36.3c1.64.46,3.34,3.85,4.09,8.26,1.32,1,2.27.42,2.27-3.32,0-11,1.2-20.77,7.6-23.1,6.09-2.21,7.43,2.65,12.07,2.65s6.11-4.58,12.07-2.65c6.19,2,7.6,12.09,7.6,23.1,0,3.58.88,4.27,2.11,3.43C76.7,40,78.54,36.48,80.25,36.26Z"/><path class="cls-1" d="M72.61,6.93c1.29,10.37-12.87,33-23.17,38.15C56,40.88,60.33,25.27,58.75,14,58.37,11.32,73.68,8.9,72.61,6.93Z"/><path class="cls-1" d="M65.75,8.3C64.53,18.69,34,51,22.91,52.73c-3.46-53.37,25-31.21,27.83-42C51.4,8.16,66.31,10.54,65.75,8.3Z"/><path class="cls-1" d="M58.43,1.67C57.7,12.12,72.6,49.54,83.16,54c4-38.2-4.63-43.17-10.52-46.27C70.53,6.59,57.46,3.72,58.43,1.67Z"/><path class="cls-2" d="M14.88,98.6c.49-2.21,1.28-4.38,3.43-5.57,7.85,6.09,11.48,25,9,33.38l-7.44,26.51L4.35,168C-.58,162.7-.23,155.78.28,152.7,1.19,147.17,14.33,101.06,14.88,98.6Z"/><polygon class="cls-6" points="39.1 81.31 54.28 163.11 32.26 114.75 35.91 108.75 28.86 102.44 34.26 84.57 39.1 81.31"/><polygon class="cls-11" points="47.99 106.08 88.3 121.87 67.72 191.52 27.41 175.73 47.99 106.08"/><path class="cls-4" d="M67.54,143.19c-1.19.3-2.64.61-4.35,1l4.29-4.89a3.26,3.26,0,0,0-.6-5.12L56.16,144.56c-1.51,1.46-1.82,4.85-1.37,8,.93,6.42,5.08,7.86,12.83,7.92l12,.09c2.57,0,2.56-4.15,0-4.15l-8.47,0a2.65,2.65,0,0,0,.29-.54l11.16-1.24c2.58-.28,1.91-4.35-.26-4.14l-10.32,1a3.52,3.52,0,0,0,0-.46l11.7-2.35c2.35-.47,1.71-4.56-.62-4.08L70.5,147.14c-.11-.16-.23-.33-.36-.48L82,142.83c2.26-.73,1.36-4.75-1-4Z"/><polygon class="cls-5" points="50.07 142.82 53.27 163.25 60.95 161.49 71.29 121.53 50.07 142.82"/><path class="cls-2" d="M14.34,148.39l37.3-6.81,3.81,22.29s0,0,0,0l-40,8c-6.66,1.34-10.95-3.64-12.65-6.08C-1.64,157.39,7.7,146.48,14.34,148.39Z"/><path class="cls-4" d="M174.59,88.44h0a2.34,2.34,0,0,1,0,3.29l-12.92,13a2.33,2.33,0,0,1-3.29-.16h0a2.34,2.34,0,0,1,0-3.29l12.92-13A2.32,2.32,0,0,1,174.59,88.44Z"/><path class="cls-3" d="M143.74,116.74l6.5,8.24,8.18-4.64c4.35-2.47,9.57-14.05,12-19.09l-6.25-4.11-15.06,7.49Z"/><polygon class="cls-1" points="197.24 31.23 198.44 32.06 147.09 134.29 143.45 131.79 197.24 31.23"/><path class="cls-4" d="M148.92,107.83l.88,1.61,1.38-1.26,11.12-10.07a4,4,0,0,0,1.4-3.63c-.14-1.06-1.07-3.19-1.66-2.65l-12.61,11.47A3.9,3.9,0,0,0,148.92,107.83Z"/><path class="cls-12" d="M162.64,91.82c-.17-.31-.36-.19-.46-.11L159.67,94c.92,1.26,2.31.27,3.1-1.08A1.46,1.46,0,0,0,162.64,91.82Z"/><path class="cls-4" d="M163.68,112.45h0a1.94,1.94,0,0,1-.85,2.66l-3.21,1.28a2.14,2.14,0,0,1-2.6-1.3h0a1.94,1.94,0,0,1,.85-2.66l3.21-1.28A2.13,2.13,0,0,1,163.68,112.45Z"/><path class="cls-4" d="M167.09,106.08h0a2.25,2.25,0,0,1-1,3.09l-3.18,1.27a2.48,2.48,0,0,1-3-1.51h0a2.25,2.25,0,0,1,1-3.08l3.18-1.26A2.48,2.48,0,0,1,167.09,106.08Z"/><path class="cls-12" d="M163.75,107.36h0a1.79,1.79,0,0,1-.78,2.45l-.33.13a2,2,0,0,1-2.4-1.2h0a1.78,1.78,0,0,1,.78-2.45l.33-.13A2,2,0,0,1,163.75,107.36Z"/><path class="cls-12" d="M160.62,113.58h0a1.64,1.64,0,0,1-.72,2.26l-.3.12a1.81,1.81,0,0,1-2.21-1.1h0a1.64,1.64,0,0,1,.72-2.25l.3-.12A1.81,1.81,0,0,1,160.62,113.58Z"/><path class="cls-4" d="M170.39,99.22h0a2.25,2.25,0,0,1-1,3.08l-3.18,1.26a2.48,2.48,0,0,1-3-1.5h0a2.25,2.25,0,0,1,1-3.09l3.18-1.27A2.48,2.48,0,0,1,170.39,99.22Z"/><path class="cls-12" d="M167,100.5h0a1.79,1.79,0,0,1-.78,2.45l-.33.13a2,2,0,0,1-2.4-1.2h0a1.78,1.78,0,0,1,.78-2.45l.33-.13A2,2,0,0,1,167,100.5Z"/><path class="cls-4" d="M143.74,116.74l4.62,5.86c4-3.76,9.91-12,6.12-17.64a12,12,0,0,0-1.45-2.28l-3.91,1.95Z"/><polygon class="cls-5" points="136.01 117.61 148.07 132.97 153.77 126.82 141.71 111.47 136.01 117.61"/><path class="cls-2" d="M114.83,125.83c2.43,3.33,4.29,5.85,5,6.8l17.57-17.83a0,0,0,0,1,0,0l13.06,17a0,0,0,0,1,0,.05l-26.86,27.25c-3.59,3.64-6.69,2.61-8.83.86Z"/><path class="cls-1" d="M152.59,122,147,133.14l-3.64-2.5,6-11.2c.71.14,1.29-.54,1.59-.9Z"/></g></g></svg>