<svg xmlns="http://www.w3.org/2000/svg" viewBox="0 0 203.72 317.27"><defs><style>.cls-1{fill:#f6921e;}.cls-2{fill:red;}.cls-3{fill:#29aae1;}.cls-4{fill:#cdcbc9;}.cls-5{fill:#fad1bf;}.cls-13,.cls-19,.cls-5{fill-rule:evenodd;}.cls-6{fill:#82451d;}.cls-7{fill:#4c413d;}.cls-13,.cls-8{fill:#5a4e49;}.cls-9{fill:#2d2826;}.cls-10{fill:#1e1c1b;}.cls-11{fill:#f5c8a4;}.cls-12{fill:#ffcc96;}.cls-14{fill:#f1f1f1;}.cls-15{fill:#e5e5e5;}.cls-16{fill:#0071bb;}.cls-17{fill:#ffd19a;}.cls-18{fill:#ffe1ab;}.cls-19{fill:#fff;}</style></defs><title>victory</title><g id="Layer_2" data-name="Layer 2"><g id="Layer_1-2" data-name="Layer 1"><rect class="cls-1" y="241.01" width="67.91" height="76.26"/><rect class="cls-2" x="67.91" y="216.36" width="67.91" height="100.91"/><rect class="cls-3" x="135.81" y="249.37" width="67.91" height="67.91"/><path d="M103.24,269.66v13.66h-1.76V269.66Z"/><path d="M31.34,270.12v13.66H29.57V270.12Z"/><path d="M36.18,270.12v13.66H34.42V270.12Z"/><path d="M164.74,270.12v13.66H163V270.12Z"/><path d="M169.58,270.12v13.66h-1.76V270.12Z"/><path d="M174.43,270.12v13.66h-1.76V270.12Z"/><polygon class="cls-4" points="89.37 49.59 91.77 49.59 91.77 50.97 89.37 49.59"/><polygon class="cls-4" points="111.7 49.59 109.3 49.59 109.3 50.97 111.7 49.59"/><path class="cls-5" d="M160.32,16.41c.54-.32,3.51-2.63,5.18-4.12.1,0,.14-.05.11,0l.25-.31a3.39,3.39,0,0,0,.79-.87c.9-1,2-2,2.85-3,1.24-1.46,2-2,1.87-2.6S170,5.36,170,5.36s2-1.47,1.88-2.27-1.16-.45-1.16-.45L169.2,4c.23-.2,2.29-2,2.2-2.57a.89.89,0,0,0-1.11-.67,19,19,0,0,0-2.76,2.35s1.49-1.47,1.38-1.88A.81.81,0,0,0,167.79.8c-.42.22-4.8,4.16-5,4.28h0c-.41.26-.83.55-1.22.81h-.07l-.05,0h0a2.84,2.84,0,0,1-.2-1.4c.1-.75.52-2.06.18-2.66s-.71-1.11-1.06-.81-.8,2.72-1.1,3.78c-.2.7-.52,1.24-.69,1.88a29,29,0,0,0-1.38,4.73Z"/><path class="cls-6" d="M119.62,24.12C119.62,34,111.48,39,101.45,39h0c-10,0-18-5.49-18-15.37l-.18-3.83c0-9.88,5.35-17.89,18.17-17.89h0c13.12,0,18.17,8,18.17,17.89Z"/><path class="cls-6" d="M99.81,1.87s6.52-.15,7.67-1.83c0,0,.44,1.27,0,1.83,0,0,1.83.31,1.95-.91a2.27,2.27,0,0,1,0,2.17"/><path class="cls-7" d="M80.67,112.63l.26,69.44-.26,19.1H94.76l6.91-59.48h0L109,201.18h14.09l-.26-81.63"/><path class="cls-8" d="M88.66,125.5l.05,4.07c-9.39-1.27-10.66-2.4-10.66-2.4L82.38,51h35.53l6.93,78.39-13,1.36-.17-4.09"/><path class="cls-9" d="M94.76,201.18H80.67s-10.9,2.69-10.84,13.46H94.76Z"/><rect class="cls-10" x="69.81" y="214.64" width="16.81" height="1.72"/><rect class="cls-10" x="89.78" y="214.64" width="4.98" height="1.72"/><path class="cls-9" d="M109,201.18h14.09s10.9,2.69,10.84,13.46H109Z"/><rect class="cls-10" x="117.08" y="214.64" width="16.81" height="1.72"/><rect class="cls-10" x="108.95" y="214.64" width="4.98" height="1.72"/><path class="cls-11" d="M117.91,51"/><polygon class="cls-12" points="100.3 42.85 110.28 42.85 110.28 51.53 100.3 59.73 90.31 51.53 90.31 42.85 100.3 42.85"/><polygon class="cls-13" points="117.34 51.39 156.26 10.86 162.59 15.16 118.92 71.73 117.34 51.39"/><path class="cls-5" d="M40.43,17.22c-.6-.35-3.84-2.88-5.67-4.51-.11,0-.15-.06-.12,0l-.27-.34a3.72,3.72,0,0,1-.86-1c-1-1-2.18-2.21-3.12-3.32-1.36-1.6-2.2-2.24-2.05-2.85s1.46-.12,1.46-.12S27.64,3.5,27.73,2.62,29,2.12,29,2.12l1.7,1.45c-.25-.22-2.51-2.18-2.41-2.82A1,1,0,0,1,29.5,0a20.73,20.73,0,0,1,3,2.57S30.88,1,31,.53A.89.89,0,0,1,32.24.12c.46.24,5.26,4.56,5.48,4.7h0c.45.28.91.6,1.34.89h0l0,0h0l.06,0h0a3.13,3.13,0,0,0,.22-1.54c-.11-.82-.58-2.25-.19-2.92S40.06.16,40.44.49s.87,3,1.2,4.15c.22.76.57,1.36.76,2.06a31.72,31.72,0,0,1,1.51,5.18Z"/><polygon class="cls-13" points="82.75 51.39 43.83 10.86 37.5 15.16 81.17 71.73 82.75 51.39"/><path class="cls-14" d="M89.37,62.24l-.71,63.26s12.93,2.81,23,1.13l.17-64.33L100.55,56Z"/><polygon class="cls-15" points="89.37 49.59 89.37 62.24 100.57 56.04 89.37 49.59"/><polygon class="cls-15" points="111.87 49.52 111.87 62.31 100.55 56.04 111.87 49.52"/><path class="cls-16" d="M103.27,67.4a8.72,8.72,0,0,0,2.43-2.07c.65-1,0-6.3,0-6.3l-5.14-3-5.14,3s-.65,5.26,0,6.3a8.75,8.75,0,0,0,2.43,2.07S93.65,96.91,93.31,100l7.25,5.69,7.25-6.21C107.46,96.39,103.27,67.4,103.27,67.4Z"/><path class="cls-17" d="M115.87,27.78s1-.79,1.72-.17.1,5.19-.86,6.87-.66,2.5-1.61,2.53-.66-.14-.66-.14Z"/><path class="cls-17" d="M84.72,27.78s-1-.79-1.72-.17-.1,5.19.86,6.87S84.51,37,85.47,37s.66-.14.66-.14Z"/><path class="cls-18" d="M85.19,15.67c.94-5.93,9.71-8.9,15.11-8.9s14.16,3,15.11,8.9.54,18.21-.54,20.36-6.88,16-14.57,16S86.81,38.19,85.73,36,84.25,21.61,85.19,15.67Z"/><polygon class="cls-19" points="43.83 10.86 43.36 9.58 36.28 14.3 37.5 15.16 43.83 10.86"/><polygon class="cls-19" points="156.26 10.86 157.01 10.02 163.15 14.36 162.59 15.16 156.26 10.86"/><path class="cls-6" d="M85.14,33.45l1.34-7.61s-1.09-4.59.94-8.15c.82-1.44,2.42-3.67,2.42-3.67s4.34,3.87,7.51,4.51c0,0-1.9-2.38-2-3.81,0,0,5.91,4.28,11.42,4.52a9.55,9.55,0,0,1-2.36-2.2,14.18,14.18,0,0,1-1.72-3.09s6.4.89,8.45,2.83c2.66,2.53,2.32,1.69,2.8,9.45l1.5,7.23,2.84-12.94L112,7.61,99.27,3.1,88.08,7.93,84,16.76Z"/></g></g></svg>